<?xml version="1.0" encoding="UTF-8" standalone="no"?>
<!DOCTYPE svg PUBLIC "-//W3C//DTD SVG 1.1//EN" "http://www.w3.org/Graphics/SVG/1.1/DTD/svg11.dtd">
<!-- Generated by Microsoft Visio, SVG Export swedeb-sample-data.svg Page-1 -->
<svg xmlns="http://www.w3.org/2000/svg" xmlns:xlink="http://www.w3.org/1999/xlink" xmlns:ev="http://www.w3.org/2001/xml-events"
		width="16.5354in" height="11.6929in" viewBox="0 0 1190.55 841.89" xml:space="preserve" color-interpolation-filters="sRGB"
		class="st23">
	<style type="text/css">
	<![CDATA[
		.st1 {marker-end:url(#mrkr4-6);stroke:#262626;stroke-dasharray:3,3;stroke-linecap:round;stroke-linejoin:round;stroke-width:1}
		.st2 {fill:#262626;fill-opacity:1;stroke:#262626;stroke-opacity:1;stroke-width:0.28409090909091}
		.st3 {fill:#ebe5d9}
		.st4 {stroke:#c5b18d;stroke-linecap:round;stroke-linejoin:round;stroke-width:0.5}
		.st5 {fill:#262626;font-family:Calibri;font-size:0.833336em}
		.st6 {fill:#e8f0d1;stroke:#849e33;stroke-linecap:round;stroke-linejoin:round;stroke-width:0.5}
		.st7 {font-size:1em}
		.st8 {fill:#ffffff}
		.st9 {stroke:#262626;stroke-linecap:round;stroke-linejoin:round;stroke-width:0.5}
		.st10 {fill:#ffffff;stroke:none;stroke-linecap:butt;stroke-width:7.2}
		.st11 {fill:#41719d;font-family:Calibri;font-size:0.666664em}
		.st12 {fill:#ebe5d9;stroke:#c5b18d;stroke-linecap:round;stroke-linejoin:round;stroke-width:0.5}
		.st13 {fill:#1e4a73;font-family:Calibri;font-size:0.833336em}
		.st14 {marker-end:url(#mrkr4-217);stroke:#3f3f3f;stroke-dasharray:3,3;stroke-linecap:round;stroke-linejoin:round;stroke-width:1}
		.st15 {fill:#3f3f3f;fill-opacity:1;stroke:#3f3f3f;stroke-opacity:1;stroke-width:0.28409090909091}
		.st16 {fill:none}
		.st17 {stroke:#a5a5a5;stroke-linecap:round;stroke-linejoin:round;stroke-width:0.75}
		.st18 {fill:#a5a5a5;font-family:Calibri;font-size:0.666664em;font-style:italic}
		.st19 {stroke:#bfbfbf;stroke-linecap:round;stroke-linejoin:round;stroke-width:0.75}
		.st20 {fill:#ffffff;stroke:none;stroke-linecap:butt}
		.st21 {fill:none;stroke:none;stroke-linecap:round;stroke-linejoin:round;stroke-width:0.5}
		.st22 {fill:#262626;font-family:Calibri;font-size:0.666664em}
		.st23 {fill:none;fill-rule:evenodd;font-size:12px;overflow:visible;stroke-linecap:square;stroke-miterlimit:3}
	]]>
	</style>

	<defs id="Markers">
		<g id="lend4">
			<path d="M 2 1 L 0 0 L 2 -1 L 2 1 " style="stroke:none"/>
		</g>
		<marker id="mrkr4-6" class="st2" refX="-7.04" orient="auto" markerUnits="strokeWidth" overflow="visible">
			<use xlink:href="#lend4" transform="scale(-3.52,-3.52) "/>
		</marker>
		<marker id="mrkr4-217" class="st15" refX="-7.04" orient="auto" markerUnits="strokeWidth" overflow="visible">
			<use xlink:href="#lend4" transform="scale(-3.52,-3.52) "/>
		</marker>
	</defs>
	<g>
		<title>Page-1</title>
		<g id="shape153-1" transform="translate(609.272,-337.015)">
			<title>Dynamic connector.153</title>
			<path d="M7.09 841.89 L7.09 890.72" class="st1"/>
		</g>
		<g id="group113-7" transform="translate(314.15,-415.222)">
			<title>Object.113</title>
			<g id="shape114-8" transform="translate(72,0)">
				<title>Sheet.114</title>
				<path d="M0 841.89 L0 805.89 L0 841.89 Z" class="st3"/>
			</g>
			<g id="shape115-11">
				<title>Sheet.115</title>
				<path d="M72 841.89 L0 841.89 L72 841.89 Z" class="st3"/>
			</g>
			<g id="shape116-14">
				<title>Sheet.116</title>
				<path d="M72 841.89 L0 841.89 L72 841.89 Z" class="st3"/>
			</g>
			<g id="shape117-17">
				<title>Sheet.117</title>
				<path d="M72 841.89 L0 841.89 L72 841.89 Z" class="st3"/>
			</g>
			<g id="shape118-20">
				<title>Sheet.118</title>
				<desc>options</desc>
				<path d="M72 841.89 L72 805.89 L0 805.89 L0 841.89 L72 841.89 ZM0 841.89 L0 805.89 L0 841.89 ZM72 805.89 L72 841.89
							 L72 805.89 Z" class="st3"/>
				<path d="M72 841.89 L72 805.89" class="st4"/>
				<path d="M0 841.89 L0 805.89" class="st4"/>
				<path d="M0 805.89 L72 805.89" class="st4"/>
				<path d="M0 841.89 L72 841.89" class="st4"/>
				<text x="20.69" y="826.89" class="st5">options</text>			</g>
		</g>
		<g id="group107-27" transform="translate(580.358,-337.015)">
			<title>Object.107</title>
			<g id="shape108-28" transform="translate(72,0)">
				<title>Sheet.108</title>
				<path d="M0 841.89 L0 805.89 L0 841.89 Z" class="st3"/>
			</g>
			<g id="shape109-31">
				<title>Sheet.109</title>
				<path d="M72 841.89 L0 841.89 L72 841.89 Z" class="st3"/>
			</g>
			<g id="shape110-34">
				<title>Sheet.110</title>
				<path d="M72 841.89 L0 841.89 L72 841.89 Z" class="st3"/>
			</g>
			<g id="shape111-37">
				<title>Sheet.111</title>
				<path d="M72 841.89 L0 841.89 L72 841.89 Z" class="st3"/>
			</g>
			<g id="shape112-40">
				<title>Sheet.112</title>
				<path d="M72 841.89 L72 805.89 L0 805.89 L0 841.89 L72 841.89 ZM0 841.89 L0 805.89 L0 841.89 ZM72 805.89 L72 841.89
							 L72 805.89 Z" class="st3"/>
				<path d="M72 841.89 L72 805.89" class="st4"/>
				<path d="M0 841.89 L0 805.89" class="st4"/>
				<path d="M0 805.89 L72 805.89" class="st4"/>
				<path d="M0 841.89 L72 841.89" class="st4"/>
			</g>
		</g>
		<g id="shape1-46" transform="translate(177.165,-701.15)">
			<title>Action</title>
			<desc>Create subset &#38; metadata</desc>
			<path d="M0 830.37 A11.5246 11.5246 -180 0 0 11.52 841.89 L80.67 841.89 A11.5246 11.5246 -180 0 0 92.2 830.37 L92.2 807.32
						 A11.5246 11.5246 -180 0 0 80.67 795.79 L11.52 795.79 A11.5246 11.5246 -180 0 0 0 807.32 L0 830.37 Z"
					class="st6"/>
			<text x="13.64" y="815.84" class="st5">Create subset &#38; <tspan x="26.45" dy="1.2em" class="st7">metadata</tspan></text>		</g>
		<g id="group4-50" transform="translate(42.5197,-671.811)">
			<title>Object</title>
			<g id="shape5-51" transform="translate(72,0)">
				<title>Sheet.5</title>
				<path d="M0 841.89 L0 805.89 L0 841.89 Z" class="st3"/>
			</g>
			<g id="shape6-54">
				<title>Sheet.6</title>
				<path d="M72 841.89 L0 841.89 L72 841.89 Z" class="st3"/>
			</g>
			<g id="shape7-57">
				<title>Sheet.7</title>
				<path d="M72 841.89 L0 841.89 L72 841.89 Z" class="st3"/>
			</g>
			<g id="shape8-60">
				<title>Sheet.8</title>
				<path d="M72 841.89 L0 841.89 L72 841.89 Z" class="st3"/>
			</g>
			<g id="shape9-63">
				<title>Sheet.9</title>
				<desc>protocols.txt</desc>
				<path d="M72 841.89 L72 805.89 L0 805.89 L0 841.89 L72 841.89 ZM0 841.89 L0 805.89 L0 841.89 ZM72 805.89 L72 841.89
							 L72 805.89 Z" class="st3"/>
				<path d="M72 841.89 L72 805.89" class="st4"/>
				<path d="M0 841.89 L0 805.89" class="st4"/>
				<path d="M0 805.89 L72 805.89" class="st4"/>
				<path d="M0 841.89 L72 841.89" class="st4"/>
				<text x="10.05" y="826.89" class="st5">protocols.txt</text>			</g>
		</g>
		<g id="shape10-70" transform="translate(62.2559,-746.752)">
			<title>Actor</title>
			<desc>Github</desc>
			<path d="M16.26 807.32 A6.11162 5.77431 0 1 1 16.26 795.79 A6.11162 5.77431 0 1 1 16.26 807.32 Z" class="st8"/>
			<path d="M16.26 807.32 A6.11162 5.77431 0 1 1 16.26 795.79 A6.11162 5.77431 0 1 1 16.26 807.32" class="st9"/>
			<path d="M0 813.08 L16.26 813.08 L32.53 813.08" class="st9"/>
			<path d="M4.07 841.89 L16.26 823.45 L28.46 841.89" class="st9"/>
			<path d="M16.26 807.32 L16.26 823.45" class="st9"/>
			<text x="2.41" y="859.89" class="st5">Github</text>		</g>
		<g id="shape11-77" transform="translate(114.52,-689.811)">
			<title>Dynamic connector</title>
			<desc>txt</desc>
			<path d="M0 841.89 L10.35 841.89 A10.3465 10.3465 -180 0 0 20.69 831.54 L20.69 821.68 A14.1732 14.1732 0 0 1 34.87 807.5
						 L55.61 807.5" class="st1"/>
			<rect x="30.4541" y="821.925" width="8.82394" height="9.59985" class="st10"/>
			<text x="30.45" y="829.12" class="st11">txt</text>		</g>
		<g id="shape12-84" transform="translate(94.7835,-758.277)">
			<title>Dynamic connector.12</title>
			<path d="M0 841.89 L21.83 841.89 A14.1732 14.1732 0 0 1 36 856.06 L36 861.79 A14.1732 14.1732 -180 0 0 50.17 875.97 L75.34
						 875.97" class="st1"/>
		</g>
		<g id="group13-89" transform="translate(333.638,-656.77)">
			<title>Object.13</title>
			<g id="shape14-90" transform="translate(72,0)">
				<title>Sheet.14</title>
				<path d="M0 841.89 L0 805.89 L0 841.89 Z" class="st3"/>
			</g>
			<g id="shape15-93">
				<title>Sheet.15</title>
				<path d="M72 841.89 L0 841.89 L72 841.89 Z" class="st3"/>
			</g>
			<g id="shape16-96">
				<title>Sheet.16</title>
				<path d="M72 841.89 L0 841.89 L72 841.89 Z" class="st3"/>
			</g>
			<g id="shape17-99">
				<title>Sheet.17</title>
				<path d="M72 841.89 L0 841.89 L72 841.89 Z" class="st3"/>
			</g>
			<g id="shape18-102">
				<title>Sheet.18</title>
				<desc>ParlaCLARIN XML</desc>
				<path d="M72 841.89 L72 805.89 L0 805.89 L0 841.89 L72 841.89 ZM0 841.89 L0 805.89 L0 841.89 ZM72 805.89 L72 841.89
							 L72 805.89 Z" class="st3"/>
				<path d="M72 841.89 L72 805.89" class="st4"/>
				<path d="M0 841.89 L0 805.89" class="st4"/>
				<path d="M0 805.89 L72 805.89" class="st4"/>
				<path d="M0 841.89 L72 841.89" class="st4"/>
				<text x="10.87" y="820.89" class="st5">ParlaCLARIN <tspan x="27.03" dy="1.2em" class="st7">XML</tspan></text>			</g>
		</g>
		<g id="group19-110" transform="translate(333.638,-706.199)">
			<title>Object.19</title>
			<g id="shape20-111" transform="translate(72,0)">
				<title>Sheet.20</title>
				<path d="M0 841.89 L0 805.89 L0 841.89 Z" class="st3"/>
			</g>
			<g id="shape21-114">
				<title>Sheet.21</title>
				<path d="M72 841.89 L0 841.89 L72 841.89 Z" class="st3"/>
			</g>
			<g id="shape22-117">
				<title>Sheet.22</title>
				<path d="M72 841.89 L0 841.89 L72 841.89 Z" class="st3"/>
			</g>
			<g id="shape23-120">
				<title>Sheet.23</title>
				<path d="M72 841.89 L0 841.89 L72 841.89 Z" class="st3"/>
			</g>
			<g id="shape24-123">
				<title>Sheet.24</title>
				<desc>metadata CSV</desc>
				<path d="M72 841.89 L72 805.89 L0 805.89 L0 841.89 L72 841.89 ZM0 841.89 L0 805.89 L0 841.89 ZM72 805.89 L72 841.89
							 L72 805.89 Z" class="st3"/>
				<path d="M72 841.89 L72 805.89" class="st4"/>
				<path d="M0 841.89 L0 805.89" class="st4"/>
				<path d="M0 805.89 L72 805.89" class="st4"/>
				<path d="M0 841.89 L72 841.89" class="st4"/>
				<text x="16.36" y="820.89" class="st5">metadata <tspan x="28.2" dy="1.2em" class="st7">CSV</tspan></text>			</g>
		</g>
		<g id="group25-131" transform="translate(334.772,-755.628)">
			<title>Database</title>
			<desc>metadata</desc>
			<g id="shape26-132" transform="translate(3.40011,0)">
				<title>Sheet.26</title>
				<path d="M0 802.82 L0 834.94 A32.033 6.95404 -180 1 0 64.07 834.94 L64.07 802.75 A32.033 6.95404 0 0 1 0 802.82 ZM64.07
							 802.75 A32.033 6.95404 -180 1 0 0 802.75 A32.033 6.95404 -180 1 0 64.07 802.75 Z" class="st12"/>
			</g>
			<g id="shape25-134">
				<text x="15.79" y="827.14" class="st13">metadata</text>			</g>
		</g>
		<g id="shape28-136" transform="translate(269.362,-724.199)">
			<title>Dynamic connector.28</title>
			<path d="M0 841.89 L21.83 841.89 A14.1732 14.1732 0 0 1 36 856.06 L36 877.18 A14.1378 14.1378 -180 0 0 50.14 891.32 L57.24
						 891.32" class="st1"/>
		</g>
		<g id="shape29-141" transform="translate(269.362,-717.112)">
			<title>Dynamic connector.29</title>
			<path d="M0 834.8 L57.24 834.8" class="st1"/>
		</g>
		<g id="shape30-146" transform="translate(177.165,-562.5)">
			<title>Action.30</title>
			<desc>Compute TF</desc>
			<path d="M0 830.37 A11.5246 11.5246 -180 0 0 11.52 841.89 L80.67 841.89 A11.5246 11.5246 -180 0 0 92.2 830.37 L92.2 807.32
						 A11.5246 11.5246 -180 0 0 80.67 795.79 L11.52 795.79 A11.5246 11.5246 -180 0 0 0 807.32 L0 830.37 Z"
					class="st6"/>
			<text x="21.52" y="821.84" class="st5">Compute TF</text>		</g>
		<g id="shape31-149" transform="translate(369.638,-656.77)">
			<title>Dynamic connector.31</title>
			<path d="M0 841.89 L0 851.8 A9.9124 9.9124 0 0 1 -9.91 861.71 L-132.2 861.71 A14.1732 14.1732 -180 0 0 -146.37 875.89
						 L-146.37 883.02" class="st1"/>
		</g>
		<g id="group33-154" transform="translate(333.638,-567.549)">
			<title>Object.33</title>
			<g id="shape34-155" transform="translate(72,0)">
				<title>Sheet.34</title>
				<path d="M0 841.89 L0 805.89 L0 841.89 Z" class="st3"/>
			</g>
			<g id="shape35-158">
				<title>Sheet.35</title>
				<path d="M72 841.89 L0 841.89 L72 841.89 Z" class="st3"/>
			</g>
			<g id="shape36-161">
				<title>Sheet.36</title>
				<path d="M72 841.89 L0 841.89 L72 841.89 Z" class="st3"/>
			</g>
			<g id="shape37-164">
				<title>Sheet.37</title>
				<path d="M72 841.89 L0 841.89 L72 841.89 Z" class="st3"/>
			</g>
			<g id="shape38-167">
				<title>Sheet.38</title>
				<desc>TF</desc>
				<path d="M72 841.89 L72 805.89 L0 805.89 L0 841.89 L72 841.89 ZM0 841.89 L0 805.89 L0 841.89 ZM72 805.89 L72 841.89
							 L72 805.89 Z" class="st3"/>
				<path d="M72 841.89 L72 805.89" class="st4"/>
				<path d="M0 841.89 L0 805.89" class="st4"/>
				<path d="M0 805.89 L72 805.89" class="st4"/>
				<path d="M0 841.89 L72 841.89" class="st4"/>
				<text x="31.27" y="826.89" class="st5">TF</text>			</g>
		</g>
		<g id="shape39-174" transform="translate(269.362,-578.463)">
			<title>Dynamic connector.39</title>
			<path d="M0 834.8 L57.24 834.8" class="st1"/>
		</g>
		<g id="shape40-179" transform="translate(499.394,-608.598)">
			<title>Action.40</title>
			<desc>PoS &#38; lemmatize</desc>
			<path d="M0 830.37 A11.5246 11.5246 -180 0 0 11.52 841.89 L80.67 841.89 A11.5246 11.5246 -180 0 0 92.2 830.37 L92.2 807.32
						 A11.5246 11.5246 -180 0 0 80.67 795.79 L11.52 795.79 A11.5246 11.5246 -180 0 0 0 807.32 L0 830.37 Z"
					class="st6"/>
			<text x="11.61" y="821.84" class="st5">PoS &#38; lemmatize</text>		</g>
		<g id="shape41-182" transform="translate(405.638,-585.549)">
			<title>Dynamic connector.41</title>
			<path d="M0 841.89 L21.83 841.89 A14.1732 14.1732 -180 0 0 36 827.72 L36 821.49 A14.1732 14.1732 0 0 1 50.17 807.32 L86.72
						 807.32" class="st1"/>
		</g>
		<g id="shape42-187" transform="translate(405.638,-674.77)">
			<title>Dynamic connector.42</title>
			<path d="M0 841.89 L21.83 841.89 A14.1732 14.1732 0 0 1 36 856.06 L36 859.31 A14.1732 14.1732 -180 0 0 50.17 873.49 L86.72
						 873.49" class="st1"/>
		</g>
		<g id="group47-192" transform="translate(509.492,-509.386)">
			<title>Object.47</title>
			<g id="shape48-193" transform="translate(72,0)">
				<title>Sheet.48</title>
				<path d="M0 841.89 L0 805.89 L0 841.89 Z" class="st3"/>
			</g>
			<g id="shape49-196">
				<title>Sheet.49</title>
				<path d="M72 841.89 L0 841.89 L72 841.89 Z" class="st3"/>
			</g>
			<g id="shape50-199">
				<title>Sheet.50</title>
				<path d="M72 841.89 L0 841.89 L72 841.89 Z" class="st3"/>
			</g>
			<g id="shape51-202">
				<title>Sheet.51</title>
				<path d="M72 841.89 L0 841.89 L72 841.89 Z" class="st3"/>
			</g>
			<g id="shape52-205">
				<title>Sheet.52</title>
				<desc>tagged corpus</desc>
				<path d="M72 841.89 L72 805.89 L0 805.89 L0 841.89 L72 841.89 ZM0 841.89 L0 805.89 L0 841.89 ZM72 805.89 L72 841.89
							 L72 805.89 Z" class="st3"/>
				<path d="M72 841.89 L72 805.89" class="st4"/>
				<path d="M0 841.89 L0 805.89" class="st4"/>
				<path d="M0 805.89 L72 805.89" class="st4"/>
				<path d="M0 841.89 L72 841.89" class="st4"/>
				<text x="7.27" y="826.89" class="st5">tagged corpus</text>			</g>
		</g>
		<g id="shape53-212" transform="translate(538.406,-608.598)">
			<title>Dynamic connector.53</title>
			<path d="M7.09 841.89 L7.09 898.06" class="st14"/>
		</g>
		<g id="shape54-218" transform="translate(269.362,-724.199)">
			<title>Dynamic connector.54</title>
			<path d="M0 841.89 L21.83 841.89 A14.1732 14.1732 -180 0 0 36 827.72 L36 801.58 A14.1732 14.1732 0 0 1 50.17 787.41 L61.77
						 787.41" class="st1"/>
		</g>
		<g id="shape64-223" transform="translate(-9.85457,302.717) rotate(-90)">
			<title>Side box callout</title>
			<desc>One zip file per XML document containing: - metadata.json (na...</desc>
			<path d="M0 841.89 L0 643.96 L36.8 643.96 L36.8 841.89 L0 841.89 Z" class="st16"/>
			<path d="M-11.79 591.35 L18.4 643.96" class="st17"/>
			<path d="M0 841.89 L0 643.96 L36.8 643.96 L36.8 841.89 L0 841.89" class="st17"/>
			<rect x="647.965" y="-32.8014" width="143.234" height="28.7996" transform="rotate(90)" class="st10"/>
			<text x="647.96" y="-25.6" transform="rotate(90)" class="st18">One zip file per XML document containing: <tspan
						x="647.96" dy="1.2em" class="st7"> </tspan>- metadata.json (name, date, SHA256 code) <tspan x="647.96"
						dy="1.2em" class="st7"> </tspan>- protocol-name.json (utterances)</text>		</g>
		<g id="shape67-231" transform="translate(431.134,-410.173)">
			<title>Action.67</title>
			<desc>Create PoS-tagged speech corpus</desc>
			<path d="M0 830.37 A11.5246 11.5246 -180 0 0 11.52 841.89 L82.62 841.89 A11.5246 11.5246 -180 0 0 94.14 830.37 L94.14
						 807.32 A11.5246 11.5246 -180 0 0 82.62 795.79 L11.52 795.79 A11.5246 11.5246 -180 0 0 0 807.32 L0 830.37
						 Z" class="st6"/>
			<text x="9.55" y="815.84" class="st5">Create PoS-tagged <tspan x="17.94" dy="1.2em" class="st7">speech corpus</tspan></text>		</g>
		<g id="shape68-235" transform="translate(570.26,-410.173)">
			<title>Action.68</title>
			<desc>Create text speech corpus</desc>
			<path d="M0 830.37 A11.5246 11.5246 -180 0 0 11.52 841.89 L80.67 841.89 A11.5246 11.5246 -180 0 0 92.2 830.37 L92.2 807.32
						 A11.5246 11.5246 -180 0 0 80.67 795.79 L11.52 795.79 A11.5246 11.5246 -180 0 0 0 807.32 L0 830.37 Z"
					class="st6"/>
			<text x="23.51" y="815.84" class="st5">Create text <tspan x="16.96" dy="1.2em" class="st7">speech corpus</tspan></text>		</g>
		<g id="shape69-239" transform="translate(-275.811,60.4089) rotate(-90)">
			<title>Side box callout.69</title>
			<desc>Sqlite3 database with processed metadata</desc>
			<path d="M0 841.89 L0 743.53 L27.2 743.53 L27.2 841.89 L0 841.89 Z" class="st16"/>
			<path d="M-2.8 681.45 L13.6 743.53" class="st19"/>
			<path d="M0 841.89 L0 743.53 L27.2 743.53 L27.2 841.89 L0 841.89" class="st19"/>
			<rect x="747.528" y="-23.2015" width="70.1007" height="19.1997" transform="rotate(90)" class="st10"/>
			<text x="747.53" y="-16" transform="rotate(90)" class="st18">Sqlite3 database with <tspan x="747.53" dy="1.2em"
						class="st7">processed metadata</tspan></text>		</g>
		<g id="shape70-246" transform="translate(-176.452,157.667) rotate(-90)">
			<title>Side box callout.70</title>
			<desc>Uses stanza with KB language models.</desc>
			<path d="M0 841.89 L0 743.53 L27.2 743.53 L27.2 841.89 L0 841.89 Z" class="st16"/>
			<path d="M-29.53 721.94 L13.6 743.53" class="st19"/>
			<path d="M0 841.89 L0 743.53 L27.2 743.53 L27.2 841.89 L0 841.89" class="st19"/>
			<rect x="747.528" y="-23.2015" width="64.7531" height="19.1997" transform="rotate(90)" class="st20"/>
			<text x="747.53" y="-16" transform="rotate(90)" class="st18">Uses stanza with KB <tspan x="747.53" dy="1.2em"
						class="st7">language models.</tspan></text>		</g>
		<g id="shape71-253" transform="translate(165.26,-746.752)">
			<title>Sheet.71</title>
			<desc>subset-corpus</desc>
			<rect x="0" y="819.213" width="87.3071" height="22.6772" class="st21"/>
			<text x="20.8" y="832.95" class="st22">subset-corpus</text>		</g>
		<g id="shape73-256" transform="translate(155.055,-608.598)">
			<title>Sheet.73</title>
			<desc>riksprot2tfs</desc>
			<rect x="0" y="819.213" width="64.6299" height="22.6772" class="st21"/>
			<text x="13.52" y="832.95" class="st22">riksprot2tfs</text>		</g>
		<g id="shape74-259" transform="translate(475.937,-653.953)">
			<title>Sheet.74</title>
			<desc>pos-tag</desc>
			<rect x="0" y="819.213" width="87.3071" height="22.6772" class="st21"/>
			<text x="31.52" y="832.95" class="st22">pos-tag</text>		</g>
		<g id="shape76-262" transform="translate(545.492,-509.386)">
			<title>Dynamic connector.76</title>
			<path d="M0 841.89 L0 863.72 A14.1732 14.1732 0 0 1 -14.17 877.89 L-58.73 877.89 A8.55709 8.55709 -180 0 0 -67.29 886.45
						 L-67.29 887.96" class="st1"/>
		</g>
		<g id="shape77-267" transform="translate(545.492,-509.386)">
			<title>Dynamic connector.77</title>
			<path d="M0 841.89 L0 863.72 A14.1732 14.1732 -180 0 0 14.17 877.89 L62.31 877.89 A8.55709 8.55709 0 0 1 70.87 886.45
						 L70.87 887.96" class="st1"/>
		</g>
		<g id="group84-272" transform="translate(570.26,-328.819)">
			<title>Object.84</title>
			<g id="shape85-273" transform="translate(72,0)">
				<title>Sheet.85</title>
				<path d="M0 841.89 L0 805.89 L0 841.89 Z" class="st3"/>
			</g>
			<g id="shape86-276">
				<title>Sheet.86</title>
				<path d="M72 841.89 L0 841.89 L72 841.89 Z" class="st3"/>
			</g>
			<g id="shape87-279">
				<title>Sheet.87</title>
				<path d="M72 841.89 L0 841.89 L72 841.89 Z" class="st3"/>
			</g>
			<g id="shape88-282">
				<title>Sheet.88</title>
				<path d="M72 841.89 L0 841.89 L72 841.89 Z" class="st3"/>
			</g>
			<g id="shape89-285">
				<title>Sheet.89</title>
				<desc>text speech corpus</desc>
				<path d="M72 841.89 L72 805.89 L0 805.89 L0 841.89 L72 841.89 ZM0 841.89 L0 805.89 L0 841.89 ZM72 805.89 L72 841.89
							 L72 805.89 Z" class="st3"/>
				<path d="M72 841.89 L72 805.89" class="st4"/>
				<path d="M0 841.89 L0 805.89" class="st4"/>
				<path d="M0 805.89 L72 805.89" class="st4"/>
				<path d="M0 841.89 L72 841.89" class="st4"/>
				<text x="12.57" y="820.89" class="st5">text speech <tspan x="22.3" dy="1.2em" class="st7">corpus</tspan></text>			</g>
		</g>
		<g id="shape90-293" transform="translate(403.937,-453.455)">
			<title>Sheet.90</title>
			<desc>riksprot2speech</desc>
			<rect x="0" y="819.213" width="70.8661" height="22.6772" class="st21"/>
			<text x="9.33" y="832.95" class="st22">riksprot2speech</text>		</g>
		<g id="shape91-296" transform="translate(608.598,-452.693)">
			<title>Sheet.91</title>
			<desc>riksprot2speech_text</desc>
			<rect x="0" y="819.213" width="107.717" height="22.6772" class="st21"/>
			<text x="19.36" y="832.95" class="st22">riksprot2speech_text</text>		</g>
		<g id="shape92-299" transform="translate(485.224,-410.173)">
			<title>Dynamic connector.92</title>
			<path d="M-7.02 841.89 L-7.02 859.82 a0.0669966 0.0669966 0 0 1 -0.0669966 0.0669966 L-7.09 859.89 a0.0669966 0.0669966
						 -180 0 0 -0.0669966 0.0669966 L-7.15 872.01" class="st1"/>
		</g>
		<g id="shape93-304" transform="translate(609.272,-410.173)">
			<title>Dynamic connector.93</title>
			<path d="M7.09 841.89 L7.09 863.15 L7.09 872.01" class="st1"/>
		</g>
		<g id="group94-309" transform="translate(302.457,-408.189)">
			<title>Object.94</title>
			<g id="shape95-310" transform="translate(72,0)">
				<title>Sheet.95</title>
				<path d="M0 841.89 L0 805.89 L0 841.89 Z" class="st3"/>
			</g>
			<g id="shape96-313">
				<title>Sheet.96</title>
				<path d="M72 841.89 L0 841.89 L72 841.89 Z" class="st3"/>
			</g>
			<g id="shape97-316">
				<title>Sheet.97</title>
				<path d="M72 841.89 L0 841.89 L72 841.89 Z" class="st3"/>
			</g>
			<g id="shape98-319">
				<title>Sheet.98</title>
				<path d="M72 841.89 L0 841.89 L72 841.89 Z" class="st3"/>
			</g>
			<g id="shape99-322">
				<title>Sheet.99</title>
				<desc>options</desc>
				<path d="M72 841.89 L72 805.89 L0 805.89 L0 841.89 L72 841.89 ZM0 841.89 L0 805.89 L0 841.89 ZM72 805.89 L72 841.89
							 L72 805.89 Z" class="st3"/>
				<path d="M72 841.89 L72 805.89" class="st4"/>
				<path d="M0 841.89 L0 805.89" class="st4"/>
				<path d="M0 805.89 L72 805.89" class="st4"/>
				<path d="M0 841.89 L72 841.89" class="st4"/>
				<text x="20.69" y="826.89" class="st5">options</text>			</g>
		</g>
		<g id="shape100-329" transform="translate(386.15,-426.136)">
			<title>Dynamic connector.100</title>
			<path d="M0 834.8 L37.94 834.8" class="st1"/>
		</g>
		<g id="group101-334" transform="translate(442.071,-337.015)">
			<title>Object.101</title>
			<g id="shape102-335" transform="translate(72,0)">
				<title>Sheet.102</title>
				<path d="M0 841.89 L0 805.89 L0 841.89 Z" class="st3"/>
			</g>
			<g id="shape103-338">
				<title>Sheet.103</title>
				<path d="M72 841.89 L0 841.89 L72 841.89 Z" class="st3"/>
			</g>
			<g id="shape104-341">
				<title>Sheet.104</title>
				<path d="M72 841.89 L0 841.89 L72 841.89 Z" class="st3"/>
			</g>
			<g id="shape105-344">
				<title>Sheet.105</title>
				<path d="M72 841.89 L0 841.89 L72 841.89 Z" class="st3"/>
			</g>
			<g id="shape106-347">
				<title>Sheet.106</title>
				<path d="M72 841.89 L72 805.89 L0 805.89 L0 841.89 L72 841.89 ZM0 841.89 L0 805.89 L0 841.89 ZM72 805.89 L72 841.89
							 L72 805.89 Z" class="st3"/>
				<path d="M72 841.89 L72 805.89" class="st4"/>
				<path d="M0 841.89 L0 805.89" class="st4"/>
				<path d="M0 805.89 L72 805.89" class="st4"/>
				<path d="M0 841.89 L72 841.89" class="st4"/>
			</g>
		</g>
		<g id="group78-353" transform="translate(431,-329.361)">
			<title>Object.78</title>
			<g id="shape79-354" transform="translate(72,0)">
				<title>Sheet.79</title>
				<path d="M0 841.89 L0 805.89 L0 841.89 Z" class="st3"/>
			</g>
			<g id="shape80-357">
				<title>Sheet.80</title>
				<path d="M72 841.89 L0 841.89 L72 841.89 Z" class="st3"/>
			</g>
			<g id="shape81-360">
				<title>Sheet.81</title>
				<path d="M72 841.89 L0 841.89 L72 841.89 Z" class="st3"/>
			</g>
			<g id="shape82-363">
				<title>Sheet.82</title>
				<path d="M72 841.89 L0 841.89 L72 841.89 Z" class="st3"/>
			</g>
			<g id="shape83-366">
				<title>Sheet.83</title>
				<desc>tagged speech corpus</desc>
				<path d="M72 841.89 L72 805.89 L0 805.89 L0 841.89 L72 841.89 ZM0 841.89 L0 805.89 L0 841.89 ZM72 805.89 L72 841.89
							 L72 805.89 Z" class="st3"/>
				<path d="M72 841.89 L72 805.89" class="st4"/>
				<path d="M0 841.89 L0 805.89" class="st4"/>
				<path d="M0 805.89 L72 805.89" class="st4"/>
				<path d="M0 841.89 L72 841.89" class="st4"/>
				<text x="6.68" y="820.89" class="st5">tagged speech <tspan x="22.3" dy="1.2em" class="st7">corpus</tspan></text>			</g>
		</g>
		<g id="group119-374" transform="translate(718.016,-424.346)">
			<title>Object.119</title>
			<g id="shape120-375" transform="translate(72,0)">
				<title>Sheet.120</title>
				<path d="M0 841.89 L0 805.89 L0 841.89 Z" class="st3"/>
			</g>
			<g id="shape121-378">
				<title>Sheet.121</title>
				<path d="M72 841.89 L0 841.89 L72 841.89 Z" class="st3"/>
			</g>
			<g id="shape122-381">
				<title>Sheet.122</title>
				<path d="M72 841.89 L0 841.89 L72 841.89 Z" class="st3"/>
			</g>
			<g id="shape123-384">
				<title>Sheet.123</title>
				<path d="M72 841.89 L0 841.89 L72 841.89 Z" class="st3"/>
			</g>
			<g id="shape124-387">
				<title>Sheet.124</title>
				<desc>options</desc>
				<path d="M72 841.89 L72 805.89 L0 805.89 L0 841.89 L72 841.89 ZM0 841.89 L0 805.89 L0 841.89 ZM72 805.89 L72 841.89
							 L72 805.89 Z" class="st3"/>
				<path d="M72 841.89 L72 805.89" class="st4"/>
				<path d="M0 841.89 L0 805.89" class="st4"/>
				<path d="M0 805.89 L72 805.89" class="st4"/>
				<path d="M0 841.89 L72 841.89" class="st4"/>
				<text x="20.69" y="826.89" class="st5">options</text>			</g>
		</g>
		<g id="group125-394" transform="translate(707.441,-415.222)">
			<title>Object.125</title>
			<g id="shape126-395" transform="translate(72,0)">
				<title>Sheet.126</title>
				<path d="M0 841.89 L0 805.89 L0 841.89 Z" class="st3"/>
			</g>
			<g id="shape127-398">
				<title>Sheet.127</title>
				<path d="M72 841.89 L0 841.89 L72 841.89 Z" class="st3"/>
			</g>
			<g id="shape128-401">
				<title>Sheet.128</title>
				<path d="M72 841.89 L0 841.89 L72 841.89 Z" class="st3"/>
			</g>
			<g id="shape129-404">
				<title>Sheet.129</title>
				<path d="M72 841.89 L0 841.89 L72 841.89 Z" class="st3"/>
			</g>
			<g id="shape130-407">
				<title>Sheet.130</title>
				<desc>options</desc>
				<path d="M72 841.89 L72 805.89 L0 805.89 L0 841.89 L72 841.89 ZM0 841.89 L0 805.89 L0 841.89 ZM72 805.89 L72 841.89
							 L72 805.89 Z" class="st3"/>
				<path d="M72 841.89 L72 805.89" class="st4"/>
				<path d="M0 841.89 L0 805.89" class="st4"/>
				<path d="M0 805.89 L72 805.89" class="st4"/>
				<path d="M0 841.89 L72 841.89" class="st4"/>
				<text x="20.69" y="826.89" class="st5">options</text>			</g>
		</g>
		<g id="shape131-414" transform="translate(707.441,-426.136)">
			<title>Dynamic connector.131</title>
			<path d="M0 834.8 L-37.94 834.8" class="st1"/>
		</g>
		<g id="group132-419" transform="translate(640.63,-613.648)">
			<title>Object.132</title>
			<g id="shape133-420" transform="translate(72,0)">
				<title>Sheet.133</title>
				<path d="M0 841.89 L0 805.89 L0 841.89 Z" class="st3"/>
			</g>
			<g id="shape134-423">
				<title>Sheet.134</title>
				<path d="M72 841.89 L0 841.89 L72 841.89 Z" class="st3"/>
			</g>
			<g id="shape135-426">
				<title>Sheet.135</title>
				<path d="M72 841.89 L0 841.89 L72 841.89 Z" class="st3"/>
			</g>
			<g id="shape136-429">
				<title>Sheet.136</title>
				<path d="M72 841.89 L0 841.89 L72 841.89 Z" class="st3"/>
			</g>
			<g id="shape137-432">
				<title>Sheet.137</title>
				<desc>tagger options</desc>
				<path d="M72 841.89 L72 805.89 L0 805.89 L0 841.89 L72 841.89 ZM0 841.89 L0 805.89 L0 841.89 ZM72 805.89 L72 841.89
							 L72 805.89 Z" class="st3"/>
				<path d="M72 841.89 L72 805.89" class="st4"/>
				<path d="M0 841.89 L0 805.89" class="st4"/>
				<path d="M0 805.89 L72 805.89" class="st4"/>
				<path d="M0 841.89 L72 841.89" class="st4"/>
				<text x="22.99" y="820.89" class="st5">tagger <tspan x="20.69" dy="1.2em" class="st7">options</tspan></text>			</g>
		</g>
		<g id="shape138-440" transform="translate(640.63,-624.561)">
			<title>Dynamic connector.138</title>
			<path d="M0 834.8 L-42 834.8" class="st1"/>
		</g>
		<g id="shape139-445" transform="translate(570.26,-235.045)">
			<title>Action.139</title>
			<desc>Create DTM</desc>
			<path d="M0 830.37 A11.5246 11.5246 -180 0 0 11.52 841.89 L80.67 841.89 A11.5246 11.5246 -180 0 0 92.2 830.37 L92.2 807.32
						 A11.5246 11.5246 -180 0 0 80.67 795.79 L11.52 795.79 A11.5246 11.5246 -180 0 0 0 807.32 L0 830.37 Z"
					class="st6"/>
			<text x="21.73" y="821.84" class="st5">Create DTM</text>		</g>
		<g id="group140-448" transform="translate(449.59,-240.094)">
			<title>Object.140</title>
			<g id="shape141-449" transform="translate(72,0)">
				<title>Sheet.141</title>
				<path d="M0 841.89 L0 805.89 L0 841.89 Z" class="st3"/>
			</g>
			<g id="shape142-452">
				<title>Sheet.142</title>
				<path d="M72 841.89 L0 841.89 L72 841.89 Z" class="st3"/>
			</g>
			<g id="shape143-455">
				<title>Sheet.143</title>
				<path d="M72 841.89 L0 841.89 L72 841.89 Z" class="st3"/>
			</g>
			<g id="shape144-458">
				<title>Sheet.144</title>
				<path d="M72 841.89 L0 841.89 L72 841.89 Z" class="st3"/>
			</g>
			<g id="shape145-461">
				<title>Sheet.145</title>
				<path d="M72 841.89 L72 805.89 L0 805.89 L0 841.89 L72 841.89 ZM0 841.89 L0 805.89 L0 841.89 ZM72 805.89 L72 841.89
							 L72 805.89 Z" class="st3"/>
				<path d="M72 841.89 L72 805.89" class="st4"/>
				<path d="M0 841.89 L0 805.89" class="st4"/>
				<path d="M0 805.89 L72 805.89" class="st4"/>
				<path d="M0 841.89 L72 841.89" class="st4"/>
			</g>
		</g>
		<g id="group146-467" transform="translate(438.52,-232.441)">
			<title>Object.146</title>
			<g id="shape147-468" transform="translate(72,0)">
				<title>Sheet.147</title>
				<path d="M0 841.89 L0 805.89 L0 841.89 Z" class="st3"/>
			</g>
			<g id="shape148-471">
				<title>Sheet.148</title>
				<path d="M72 841.89 L0 841.89 L72 841.89 Z" class="st3"/>
			</g>
			<g id="shape149-474">
				<title>Sheet.149</title>
				<path d="M72 841.89 L0 841.89 L72 841.89 Z" class="st3"/>
			</g>
			<g id="shape150-477">
				<title>Sheet.150</title>
				<path d="M72 841.89 L0 841.89 L72 841.89 Z" class="st3"/>
			</g>
			<g id="shape151-480">
				<title>Sheet.151</title>
				<desc>vectorise options</desc>
				<path d="M72 841.89 L72 805.89 L0 805.89 L0 841.89 L72 841.89 ZM0 841.89 L0 805.89 L0 841.89 ZM72 805.89 L72 841.89
							 L72 805.89 Z" class="st3"/>
				<path d="M72 841.89 L72 805.89" class="st4"/>
				<path d="M0 841.89 L0 805.89" class="st4"/>
				<path d="M0 805.89 L72 805.89" class="st4"/>
				<path d="M0 841.89 L72 841.89" class="st4"/>
				<text x="17.49" y="820.89" class="st5">vectorise <tspan x="20.69" dy="1.2em" class="st7">options</tspan></text>			</g>
		</g>
		<g id="shape152-488" transform="translate(521.59,-251.008)">
			<title>Dynamic connector.152</title>
			<path d="M0 834.8 L41.63 834.8" class="st1"/>
		</g>
		<g id="group154-493" transform="translate(733.323,-249.449)">
			<title>Object.154</title>
			<g id="shape155-494" transform="translate(72,0)">
				<title>Sheet.155</title>
				<path d="M0 841.89 L0 805.89 L0 841.89 Z" class="st3"/>
			</g>
			<g id="shape156-497">
				<title>Sheet.156</title>
				<path d="M72 841.89 L0 841.89 L72 841.89 Z" class="st3"/>
			</g>
			<g id="shape157-500">
				<title>Sheet.157</title>
				<path d="M72 841.89 L0 841.89 L72 841.89 Z" class="st3"/>
			</g>
			<g id="shape158-503">
				<title>Sheet.158</title>
				<path d="M72 841.89 L0 841.89 L72 841.89 Z" class="st3"/>
			</g>
			<g id="shape159-506">
				<title>Sheet.159</title>
				<path d="M72 841.89 L72 805.89 L0 805.89 L0 841.89 L72 841.89 ZM0 841.89 L0 805.89 L0 841.89 ZM72 805.89 L72 841.89
							 L72 805.89 Z" class="st3"/>
				<path d="M72 841.89 L72 805.89" class="st4"/>
				<path d="M0 841.89 L0 805.89" class="st4"/>
				<path d="M0 805.89 L72 805.89" class="st4"/>
				<path d="M0 841.89 L72 841.89" class="st4"/>
			</g>
		</g>
		<g id="group160-512" transform="translate(723.685,-240.094)">
			<title>Object.160</title>
			<g id="shape161-513" transform="translate(72,0)">
				<title>Sheet.161</title>
				<path d="M0 841.89 L0 805.89 L0 841.89 Z" class="st3"/>
			</g>
			<g id="shape162-516">
				<title>Sheet.162</title>
				<path d="M72 841.89 L0 841.89 L72 841.89 Z" class="st3"/>
			</g>
			<g id="shape163-519">
				<title>Sheet.163</title>
				<path d="M72 841.89 L0 841.89 L72 841.89 Z" class="st3"/>
			</g>
			<g id="shape164-522">
				<title>Sheet.164</title>
				<path d="M72 841.89 L0 841.89 L72 841.89 Z" class="st3"/>
			</g>
			<g id="shape165-525">
				<title>Sheet.165</title>
				<desc>DTM</desc>
				<path d="M72 841.89 L72 805.89 L0 805.89 L0 841.89 L72 841.89 ZM0 841.89 L0 805.89 L0 841.89 ZM72 805.89 L72 841.89
							 L72 805.89 Z" class="st3"/>
				<path d="M72 841.89 L72 805.89" class="st4"/>
				<path d="M0 841.89 L0 805.89" class="st4"/>
				<path d="M0 805.89 L72 805.89" class="st4"/>
				<path d="M0 841.89 L72 841.89" class="st4"/>
				<text x="26.21" y="826.89" class="st5">DTM</text>			</g>
		</g>
		<g id="shape166-532" transform="translate(662.457,-251.008)">
			<title>Dynamic connector.166</title>
			<path d="M0 834.8 L54.19 834.8" class="st1"/>
		</g>
		<g id="shape168-537" transform="translate(613.067,-278.337)">
			<title>Sheet.168</title>
			<desc>vectorize</desc>
			<rect x="0" y="819.213" width="57.3265" height="22.6772" class="st21"/>
			<text x="13.84" y="832.95" class="st22">vectorize</text>		</g>
	</g>
</svg>
